<svg xmlns="http://www.w3.org/2000/svg" width="21.906" height="21.906" viewBox="0 0 21.906 21.906">
  <path id="Icon_ionic-md-cog" data-name="Icon ionic-md-cog" d="M24.156,14.768V11.638h-1.7A9.476,9.476,0,0,0,22,9.927l1.467-.846L21.907,6.372l-1.467.846a9.463,9.463,0,0,0-1.252-1.252L20.034,4.5,17.325,2.935,16.479,4.4a9.089,9.089,0,0,0-1.711-.455V2.25H11.638v1.7A9.476,9.476,0,0,0,9.927,4.4L9.081,2.935,6.372,4.5l.846,1.467A9.462,9.462,0,0,0,5.966,7.218L4.5,6.372,2.935,9.081,4.4,9.927a9.089,9.089,0,0,0-.455,1.711H2.25v3.129h1.7A9.476,9.476,0,0,0,4.4,16.479l-1.467.846L4.5,20.034l1.467-.846A9.462,9.462,0,0,0,7.218,20.44l-.846,1.467,2.709,1.565L9.927,22a9.089,9.089,0,0,0,1.711.455v1.7h3.129v-1.7A9.476,9.476,0,0,0,16.479,22l.846,1.467,2.709-1.565-.846-1.467a9.463,9.463,0,0,0,1.252-1.252l1.467.846,1.565-2.709L22,16.479a9.089,9.089,0,0,0,.455-1.711ZM13.2,11.638A1.565,1.565,0,1,1,11.638,13.2,1.563,1.563,0,0,1,13.2,11.638ZM7.59,17.457A7.027,7.027,0,0,1,6.162,13.2a7.463,7.463,0,0,1,.054-.88l2.293.836V13.2a4.7,4.7,0,0,0,.65,2.386ZM9.58,10.22,7.286,9.384a7.033,7.033,0,0,1,4.352-3.046v2.44A4.73,4.73,0,0,0,9.58,10.22ZM13.2,20.244a6.994,6.994,0,0,1-3.217-.777l1.57-1.868a4.7,4.7,0,0,0,3.3,0l1.57,1.868A6.994,6.994,0,0,1,13.2,20.244ZM14.768,8.778V6.338A7.033,7.033,0,0,1,19.12,9.384l-2.293.836A4.73,4.73,0,0,0,14.768,8.778Zm4.049,8.679-1.57-1.868A4.7,4.7,0,0,0,17.9,13.2v-.044l2.293-.836a7.462,7.462,0,0,1,.054.88A7.027,7.027,0,0,1,18.817,17.457Z" transform="translate(-2.25 -2.25)" fill="#fff"/>
</svg>
