<svg id="Icon_ionic-ios-folder" data-name="Icon ionic-ios-folder" xmlns="http://www.w3.org/2000/svg" width="24" height="20.571" viewBox="0 0 24 20.571">
  <path id="Path_86" data-name="Path 86" d="M26.25,7.446a1.182,1.182,0,0,0-1.221-1.232H11.191a.4.4,0,0,1-.327-.129L9.659,4.88,9.648,4.87a1.164,1.164,0,0,0-.927-.37H3.573A1.275,1.275,0,0,0,2.25,5.732V9.68c0,.086.091.08.161.038a.994.994,0,0,1,.375-.075H25.714a.993.993,0,0,1,.375.075c.07.043.161.048.161-.038Z" transform="translate(-2.25 -4.5)" fill="#fff"/>
  <path id="Path_87" data-name="Path 87" d="M2.25,25.454a1.693,1.693,0,0,0,1.693,1.693H24.536a1.719,1.719,0,0,0,1.714-1.714V14.076a.86.86,0,0,0-.857-.857H3.107a.86.86,0,0,0-.857.857Z" transform="translate(-2.25 -6.576)" fill="#fff"/>
</svg>
