<svg xmlns="http://www.w3.org/2000/svg" width="21.708" height="21.708" viewBox="0 0 21.708 21.708">
  <path id="Icon_awesome-coins" data-name="Icon awesome-coins" d="M0,17.184v1.81c0,1.5,3.646,2.714,8.141,2.714s8.141-1.217,8.141-2.714v-1.81c-1.751,1.234-4.952,1.81-8.141,1.81S1.751,18.418,0,17.184ZM13.568,5.427c4.494,0,8.141-1.217,8.141-2.714S18.062,0,13.568,0,5.427,1.217,5.427,2.714,9.073,5.427,13.568,5.427ZM0,12.737v2.188c0,1.5,3.646,2.714,8.141,2.714s8.141-1.217,8.141-2.714V12.737c-1.751,1.442-4.956,2.188-8.141,2.188S1.751,14.178,0,12.737Zm17.638.466c2.429-.471,4.07-1.344,4.07-2.349V9.044a10.412,10.412,0,0,1-4.07,1.463Zm-9.5-6.419C3.646,6.784,0,8.3,0,10.176s3.646,3.392,8.141,3.392,8.141-1.518,8.141-3.392S12.635,6.784,8.141,6.784Zm9.3,2.387c2.544-.458,4.27-1.357,4.27-2.387V4.973C20.2,6.038,17.617,6.61,14.895,6.746A4.748,4.748,0,0,1,17.439,9.171Z" fill="#fff"/>
</svg>
