<svg xmlns="http://www.w3.org/2000/svg" width="77" height="22" viewBox="0 0 77 22">
  <g id="Group_376" data-name="Group 376" transform="translate(-1333 -30)">
    <g id="Group_374" data-name="Group 374" transform="translate(-13)">
      <text id="_80_" data-name="80%" transform="translate(1379 30)" fill="#fff" font-size="22" font-family="Helvetica-Bold, Helvetica" font-weight="700" letter-spacing="-0.025em"><tspan x="0" y="17">80%</tspan></text>
      <path id="Icon_material-data-usage" data-name="Icon material-data-usage" d="M15.13,3.075V6.416a7.714,7.714,0,0,1,6.616,7.631,7.856,7.856,0,0,1-.529,2.8l2.867,1.687a10.891,10.891,0,0,0,.97-4.488A11.034,11.034,0,0,0,15.13,3.075Zm-1.1,18.691a7.714,7.714,0,0,1-1.1-15.35V3.075A11.027,11.027,0,1,0,22.9,20.564l-2.867-1.687A7.665,7.665,0,0,1,14.027,21.766Z" transform="translate(1343 26.925)" fill="#f21364"/>
    </g>
    <path id="Icon_material-data-usage-2" data-name="Icon material-data-usage" d="M14.027,21.766A7.911,7.911,0,0,1,9.335,20.18a7.562,7.562,0,0,1-3.027-6.132,7.714,7.714,0,0,1,6.616-7.631V3.075A11.027,11.027,0,1,0,22.9,20.564l-2.867-1.687A7.665,7.665,0,0,1,14.027,21.766Z" transform="translate(1330 26.926)" fill="#fff"/>
  </g>
</svg>
