<?xml version="1.0" encoding="UTF-8"?>
<!-- Generator: Adobe Illustrator 28.1.0, SVG Export Plug-In . SVG Version: 6.00 Build 0)  -->
<svg xmlns="http://www.w3.org/2000/svg" xmlns:xlink="http://www.w3.org/1999/xlink" version="1.1" id="Layer_1" x="0px" y="0px" viewBox="0 0 675.24 260.77" style="enable-background:new 0 0 675.24 260.77;" xml:space="preserve">
<style type="text/css">
	.st0{fill:#FFFFFF;}
</style>
<g>
	<polygon class="st0" points="393.23,40.73 386.96,20.85 361.8,29.03 361.8,0 338.92,0 338.92,29.03 313.77,20.85 307.49,40.73    333.13,48.68 316.26,72.66 333.3,84.77 350.53,62.11 367.28,84.77 384.33,72.66 367.58,48.68  "></polygon>
	<g>
		<path class="st0" d="M129.21,179.64c7.95,7.76,11.91,17.45,11.91,29.08c0,15.32-5.7,27.82-17.09,37.51    c-11.4,9.69-29.01,14.53-52.84,14.53c-24.3,0-42.24-5.13-53.82-15.39C5.8,235.12,0,222.05,0,206.16h40.99    c0.84,7.19,2.7,12.29,5.53,15.32c5.01,5.39,14.27,8.08,27.8,8.08c7.95,0,14.25-1.18,18.94-3.55c4.68-2.36,7.02-5.91,7.02-10.64    c0-4.54-1.89-7.99-5.67-10.35c-3.79-2.36-17.83-6.43-42.13-12.2c-17.49-4.35-29.84-9.78-37.02-16.31    c-7.19-6.43-10.78-15.69-10.78-27.8c0-14.28,5.6-26.55,16.81-36.81c11.2-10.26,26.97-15.39,47.3-15.39    c19.28,0,35.04,3.83,47.23,11.49c12.1,7.75,19.05,21.08,20.85,39.99H96.45c-0.57-5.2-2.04-9.31-4.4-12.34    c-4.44-5.48-12.01-8.22-22.69-8.22c-8.79,0-15.06,1.37-18.8,4.11c-3.73,2.74-5.6,5.96-5.6,9.65c0,4.63,1.99,7.99,5.96,10.07    c3.97,2.18,18.01,5.91,42.13,11.2C109.12,166.26,121.17,171.98,129.21,179.64z M295.3,117.68c-5.15-7-11.74-12.2-19.76-15.61    c-8.03-3.4-16.95-5.1-26.76-5.1c-8.76,0-17.09,1.82-25.01,5.47s-14.9,10.09-20.93,19.33V45.77h-41.42v214.26h41.42v-86.05    c0-13.61,2.85-24.09,8.54-31.43c5.69-7.34,14.02-11.01,25.01-11.01c10.59,0,17.78,3.69,21.58,11.08    c2.92,5.25,4.38,12.16,4.38,20.72v96.7h42.44v-93.34c0-14.19-0.49-24.43-1.46-30.7C302.35,129.71,299.68,123.61,295.3,117.68z     M329.28,260.03h42.15V101.05h-42.15V260.03z M530.34,135.61v-34.57H395.87v33.84h81.53l-81.53,92.76v32.38h134.5V225.9h-80.68    L530.34,135.61z M554.8,45.78v214.25h41.57V45.78H554.8z"></path>
		<path class="st0" d="M627.95,53.84c5.42-5.37,11.94-8.06,19.57-8.06s14.16,2.71,19.58,8.13c5.42,5.42,8.13,11.95,8.13,19.58    s-2.74,14.13-8.21,19.5c-5.47,5.37-11.97,8.06-19.5,8.06c-7.63,0-14.16-2.71-19.57-8.13c-5.43-5.42-8.14-11.9-8.14-19.43    C619.82,65.76,622.53,59.21,627.95,53.84z M662.96,58.05c-4.27-4.27-9.41-6.4-15.44-6.4c-6.02,0-11.17,2.16-15.44,6.48    s-6.4,9.44-6.4,15.36c0,6.02,2.13,11.14,6.4,15.36c4.27,4.22,9.42,6.32,15.44,6.32c6.03,0,11.17-2.13,15.44-6.4    c4.27-4.26,6.4-9.36,6.4-15.28C669.37,67.47,667.23,62.32,662.96,58.05z M637.18,60.14h12.5c2.83,0,5.11,0.69,6.83,2.06    c1.72,1.38,2.58,3.35,2.58,5.93c0,3.18-1.55,5.29-4.64,6.31c1.72,0.86,2.82,1.8,3.29,2.84c0.47,1.03,0.8,2.62,0.97,4.77l0.13,1.55    c0.26,1.8,0.43,2.84,0.51,3.09h-7.47c-0.35-1.03-0.51-2.23-0.51-3.61c0-2.32-0.3-3.82-0.9-4.51c-0.6-0.69-1.94-1.03-4-1.03h-1.42    v9.15h-7.86V60.14z M645.04,71.74h1.68c3.01,0,4.51-1.03,4.51-3.09c0-1.89-1.46-2.83-4.38-2.83h-1.8V71.74z"></path>
	</g>
</g>
</svg>
