<?xml version="1.0" encoding="UTF-8"?>
<svg id="Layer_1" xmlns="http://www.w3.org/2000/svg" viewBox="0 0 16 16">
  <path d="M11,2.5C11,1.12,12.12,0,13.5,0c1.38,0,2.5,1.12,2.5,2.5,0,1.38-1.12,2.5-2.5,2.5-.73,0-1.42-.32-1.9-.87l-6.72,3.12c.15.49.15,1.01,0,1.5l6.72,3.12c.9-1.05,2.48-1.17,3.53-.27s1.17,2.48.27,3.53c-.9,1.05-2.48,1.17-3.53.27-.76-.65-1.06-1.7-.75-2.65l-6.72-3.12c-.9,1.05-2.48,1.17-3.53.27-1.05-.9-1.17-2.48-.27-3.53.9-1.05,2.48-1.17,3.53-.27.1.08.19.17.27.27l6.72-3.12c-.08-.24-.12-.5-.11-.75"/>
</svg>